<svg width="34" height="34" viewBox="0 0 34 34" fill="none" xmlns="http://www.w3.org/2000/svg">
<rect width="34" height="34" rx="4" fill="white"/>
<path d="M23.4442 11.9379C23.4442 12.7008 22.8258 13.3192 22.063 13.3192C21.3001 13.3192 20.6817 12.7008 20.6817 11.9379C20.6817 11.1751 21.3001 10.5567 22.063 10.5567C22.8258 10.5567 23.4442 11.1751 23.4442 11.9379Z" fill="#7FC4D3"/>
<path fill-rule="evenodd" clip-rule="evenodd" d="M16.9984 21.6067C19.5412 21.6067 21.6025 19.5453 21.6025 17.0025C21.6025 14.4597 19.5412 12.3984 16.9984 12.3984C14.4556 12.3984 12.3942 14.4597 12.3942 17.0025C12.3942 19.5453 14.4556 21.6067 16.9984 21.6067ZM16.9984 19.765C18.5241 19.765 19.7609 18.5282 19.7609 17.0025C19.7609 15.4768 18.5241 14.24 16.9984 14.24C15.4727 14.24 14.2359 15.4768 14.2359 17.0025C14.2359 18.5282 15.4727 19.765 16.9984 19.765Z" fill="#7FC4D3"/>
<path fill-rule="evenodd" clip-rule="evenodd" d="M7.79004 16.6342C7.79004 13.5399 7.79004 11.9928 8.39223 10.8109C8.92193 9.7713 9.76715 8.92608 10.8067 8.39638C11.9886 7.79419 13.5358 7.79419 16.63 7.79419H17.3667C20.461 7.79419 22.0081 7.79419 23.19 8.39638C24.2296 8.92608 25.0748 9.7713 25.6045 10.8109C26.2067 11.9928 26.2067 13.5399 26.2067 16.6342V17.3709C26.2067 20.4651 26.2067 22.0123 25.6045 23.1942C25.0748 24.2338 24.2296 25.079 23.19 25.6087C22.0081 26.2109 20.461 26.2109 17.3667 26.2109H16.63C13.5358 26.2109 11.9886 26.2109 10.8067 25.6087C9.76715 25.079 8.92193 24.2338 8.39223 23.1942C7.79004 22.0123 7.79004 20.4651 7.79004 17.3709V16.6342ZM16.63 9.63586H17.3667C18.9442 9.63586 20.0166 9.63729 20.8455 9.70501C21.653 9.77098 22.0659 9.89055 22.3539 10.0373C23.047 10.3904 23.6104 10.9539 23.9636 11.647C24.1103 11.935 24.2299 12.3479 24.2959 13.1554C24.3636 13.9843 24.365 15.0567 24.365 16.6342V17.3709C24.365 18.9484 24.3636 20.0208 24.2959 20.8497C24.2299 21.6571 24.1103 22.07 23.9636 22.3581C23.6104 23.0511 23.047 23.6146 22.3539 23.9677C22.0659 24.1145 21.653 24.2341 20.8455 24.3C20.0166 24.3678 18.9442 24.3692 17.3667 24.3692H16.63C15.0525 24.3692 13.9801 24.3678 13.1512 24.3C12.3438 24.2341 11.9309 24.1145 11.6428 23.9677C10.9498 23.6146 10.3863 23.0511 10.0332 22.3581C9.8864 22.07 9.76683 21.6571 9.70086 20.8497C9.63314 20.0208 9.63171 18.9484 9.63171 17.3709V16.6342C9.63171 15.0567 9.63314 13.9843 9.70086 13.1554C9.76683 12.3479 9.8864 11.935 10.0332 11.647C10.3863 10.9539 10.9498 10.3904 11.6428 10.0373C11.9309 9.89055 12.3438 9.77098 13.1512 9.70501C13.9801 9.63729 15.0525 9.63586 16.63 9.63586Z" fill="#7FC4D3"/>
</svg>
