<svg width="34" height="34" viewBox="0 0 34 34" fill="none" xmlns="http://www.w3.org/2000/svg">
<rect width="34" height="34" rx="4" fill="white"/>
<path d="M12.2328 10.0202C12.2328 11.2495 11.2383 12.2462 10.0114 12.2462C8.78459 12.2462 7.79004 11.2495 7.79004 10.0202C7.79004 8.7908 8.78459 7.79419 10.0114 7.79419C11.2383 7.79419 12.2328 8.7908 12.2328 10.0202Z" fill="#7FC4D3"/>
<path d="M8.09382 13.8823H11.8911V26.2109H8.09382V13.8823Z" fill="#7FC4D3"/>
<path d="M18.0046 13.8823H14.2074V26.2109H18.0046C18.0046 26.2109 18.0046 22.3297 18.0046 19.903C18.0046 18.4464 18.4688 16.9835 20.321 16.9835C22.4141 16.9835 22.4015 18.8896 22.3918 20.3663C22.379 22.2966 22.4095 24.2664 22.4095 26.2109H26.2067V19.7041C26.1745 15.5494 25.1641 13.635 21.8399 13.635C19.8657 13.635 18.642 14.5953 18.0046 15.4641V13.8823Z" fill="#7FC4D3"/>
</svg>
