<svg width="34" height="34" viewBox="0 0 34 34" fill="none" xmlns="http://www.w3.org/2000/svg">
<rect width="34" height="34" rx="4" fill="white"/>
<path d="M13.5707 24.7891C11.4429 24.7891 9.45949 24.1516 7.79004 23.0517C9.20746 23.1462 11.7089 22.9199 13.2648 21.3912C10.9242 21.2805 9.86866 19.4314 9.73098 18.6412C9.92986 18.7202 10.8783 18.815 11.4137 18.5937C8.72133 17.8983 8.30829 15.4644 8.40008 14.7216C8.9049 15.0851 9.76158 15.2116 10.0981 15.1799C7.58929 13.3308 8.49186 10.5492 8.9355 9.94863C10.7359 12.5181 13.4342 13.9611 16.7724 14.0414C16.7094 13.7571 16.6762 13.461 16.6762 13.157C16.6762 10.9748 18.3884 9.20581 20.5006 9.20581C21.6042 9.20581 22.5986 9.68873 23.2967 10.4612C24.0341 10.2832 25.144 9.86645 25.6866 9.5061C25.4131 10.5176 24.5617 11.3614 24.0466 11.6741C24.0509 11.6848 24.0424 11.6634 24.0466 11.6741C24.499 11.6036 25.7231 11.3613 26.2067 11.0233C25.9676 11.5916 25.0649 12.5364 24.3241 13.0653C24.4619 19.3269 19.8112 24.7891 13.5707 24.7891Z" fill="#7FC4D3"/>
</svg>
