<svg width="15" height="20" viewBox="0 0 15 20" fill="none" xmlns="http://www.w3.org/2000/svg">
<path d="M14.1557 7.64342C14.1557 11.7934 10.1057 16.7834 8.45573 18.6434C8.08573 19.0534 7.44573 19.0534 7.07573 18.6434C5.42573 16.7834 1.37573 11.7934 1.37573 7.64342C1.37573 4.11342 4.23573 1.25342 7.76573 1.25342C11.2957 1.25342 14.1557 4.11342 14.1557 7.64342Z" stroke="black" stroke-width="1.2" stroke-miterlimit="10" stroke-linecap="round" stroke-linejoin="round"/>
<path d="M14.1557 7.64342C14.1557 11.7934 10.1057 16.7834 8.45573 18.6434C8.08573 19.0534 7.44573 19.0534 7.07573 18.6434C5.42573 16.7834 1.37573 11.7934 1.37573 7.64342C1.37573 4.11342 4.23573 1.25342 7.76573 1.25342C11.2957 1.25342 14.1557 4.11342 14.1557 7.64342Z" stroke="black" stroke-width="1.2" stroke-miterlimit="10" stroke-linecap="round" stroke-linejoin="round"/>
<path d="M7.7558 10.2035C9.16965 10.2035 10.3158 9.05734 10.3158 7.6435C10.3158 6.22965 9.16965 5.0835 7.7558 5.0835C6.34195 5.0835 5.1958 6.22965 5.1958 7.6435C5.1958 9.05734 6.34195 10.2035 7.7558 10.2035Z" stroke="black" stroke-width="1.2" stroke-miterlimit="10" stroke-linecap="round" stroke-linejoin="round"/>
</svg>
